<svg width="180px" height="108px" viewBox="0 0 480 290" version="1.1" xmlns="http://www.w3.org/2000/svg" xmlns:xlink="http://www.w3.org/1999/xlink">
  <g id="surface2">
    <path style="stroke:none;fill-rule:evenodd;fill:rgb(90.196078%,90.588235%,90.980392%);fill-opacity:1;" d="M 308.449219 163.898438 C 308.417969 164.898438 307.250000 165.851562 304.949219 166.750000 C 302.683594 167.617188 299.449219 168.433594 295.250000 169.199219 C 291.082031 169.933594 286.148438 170.566406 280.449219 171.101562 C 274.750000 171.667969 268.484375 172.101562 261.648438 172.398438 C 254.816406 172.699219 247.601562 172.851562 240.000000 172.851562 C 230.464844 172.851562 221.582031 172.617188 213.351562 172.148438 C 205.082031 171.683594 197.816406 171.050781 191.550781 170.250000 C 185.285156 169.417969 180.398438 168.464844 176.898438 167.398438 C 173.367188 166.300781 171.566406 165.132812 171.500000 163.898438 C 171.566406 162.667969 173.367188 161.500000 176.898438 160.398438 C 180.398438 159.332031 185.285156 158.382812 191.550781 157.550781 C 197.816406 156.750000 205.082031 156.117188 213.351562 155.648438 C 221.582031 155.183594 230.464844 154.949219 240.000000 154.949219 C 249.500000 154.949219 258.382812 155.183594 266.648438 155.648438 C 274.917969 156.117188 282.167969 156.750000 288.398438 157.550781 C 294.667969 158.382812 299.566406 159.332031 303.101562 160.398438 C 306.632812 161.500000 308.417969 162.667969 308.449219 163.898438 "/>
    <path style="stroke:none;fill-rule:evenodd;fill:rgb(84.313725%,9.019608%,18.431373%);fill-opacity:1;" d="M 295.050781 146.300781 L 184.851562 165.750000 L 229.648438 102.949219 L 255.250000 98.449219 L 227.851562 136.851562 L 269.601562 129.449219 L 252.500000 71.050781 L 267.148438 50.300781 L 295.050781 146.300781 "/>
  </g>
  <g id="surface4">
    <text style="fill:#FFFFFF" font-family="Helvetica" font-size="50" transform="matrix(1,0,0,1,44.248048,226.95)"><![CDATA[Rigordecimal S.A.]]></text>
  </g>
</svg>